<mxfile host="65bd71144e">
    <diagram id="fTPpYKoAPQZvvikbCv5g" name="第 1 页">
        <mxGraphModel dx="381" dy="218" grid="1" gridSize="10" guides="1" tooltips="1" connect="1" arrows="1" fold="1" page="1" pageScale="1" pageWidth="827" pageHeight="1169" math="0" shadow="0">
            <root>
                <mxCell id="0"/>
                <mxCell id="1" parent="0"/>
                <mxCell id="2" value="接线员" style="swimlane;" vertex="1" parent="1">
                    <mxGeometry width="510" height="1600" as="geometry"/>
                </mxCell>
                <mxCell id="12" value="询问电话性质" style="rounded=1;whiteSpace=wrap;html=1;arcSize=40;fontColor=#000000;fillColor=#ffffc0;strokeColor=#ff0000;" vertex="1" parent="2">
                    <mxGeometry x="260" y="150" width="120" height="40" as="geometry"/>
                </mxCell>
                <mxCell id="13" value="" style="edgeStyle=orthogonalEdgeStyle;html=1;verticalAlign=bottom;endArrow=open;endSize=8;strokeColor=#ff0000;entryX=0.5;entryY=0;entryDx=0;entryDy=0;" edge="1" source="12" parent="2" target="14">
                    <mxGeometry relative="1" as="geometry">
                        <mxPoint x="320" y="240" as="targetPoint"/>
                    </mxGeometry>
                </mxCell>
                <mxCell id="14" value="&lt;font color=&quot;#000000&quot;&gt;是否属于帮助台职责&lt;/font&gt;" style="rhombus;whiteSpace=wrap;html=1;fillColor=#ffffc0;strokeColor=#ff0000;" vertex="1" parent="2">
                    <mxGeometry x="250" y="230" width="140" height="40" as="geometry"/>
                </mxCell>
                <mxCell id="15" value="no" style="edgeStyle=orthogonalEdgeStyle;html=1;align=left;verticalAlign=bottom;endArrow=open;endSize=8;strokeColor=#ff0000;entryX=1;entryY=0.5;entryDx=0;entryDy=0;" edge="1" source="14" parent="2" target="17">
                    <mxGeometry x="-1" relative="1" as="geometry">
                        <mxPoint x="203.28358208955223" y="250" as="targetPoint"/>
                    </mxGeometry>
                </mxCell>
                <mxCell id="17" value="转接出去" style="rounded=1;whiteSpace=wrap;html=1;arcSize=40;fontColor=#000000;fillColor=#ffffc0;strokeColor=#ff0000;" vertex="1" parent="2">
                    <mxGeometry x="70" y="230" width="120" height="40" as="geometry"/>
                </mxCell>
                <mxCell id="18" value="" style="edgeStyle=orthogonalEdgeStyle;html=1;verticalAlign=bottom;endArrow=open;endSize=8;strokeColor=#ff0000;fontColor=#000000;entryX=1;entryY=0.5;entryDx=0;entryDy=0;" edge="1" source="17" parent="2" target="19">
                    <mxGeometry relative="1" as="geometry">
                        <mxPoint x="120" y="320" as="targetPoint"/>
                    </mxGeometry>
                </mxCell>
                <mxCell id="19" value="" style="ellipse;html=1;shape=endState;fillColor=#000000;strokeColor=#ff0000;fontColor=#000000;" vertex="1" parent="2">
                    <mxGeometry x="60" y="290" width="30" height="30" as="geometry"/>
                </mxCell>
                <mxCell id="7" value="顾问" style="swimlane;" vertex="1" parent="1">
                    <mxGeometry x="1010" width="500" height="1600" as="geometry"/>
                </mxCell>
                <mxCell id="20" value="转接到顾问" style="rounded=1;whiteSpace=wrap;html=1;arcSize=40;fontColor=#000000;fillColor=#ffffc0;strokeColor=#ff0000;" vertex="1" parent="7">
                    <mxGeometry x="90" y="230" width="120" height="40" as="geometry"/>
                </mxCell>
                <mxCell id="21" value="" style="edgeStyle=orthogonalEdgeStyle;html=1;verticalAlign=bottom;endArrow=open;endSize=8;strokeColor=#ff0000;fontColor=#000000;entryX=0.5;entryY=0;entryDx=0;entryDy=0;" edge="1" source="20" parent="7" target="22">
                    <mxGeometry relative="1" as="geometry">
                        <mxPoint x="220" y="390" as="targetPoint"/>
                    </mxGeometry>
                </mxCell>
                <mxCell id="22" value="能否接电话" style="rhombus;whiteSpace=wrap;html=1;fillColor=#ffffc0;strokeColor=#ff0000;fontColor=#000000;" vertex="1" parent="7">
                    <mxGeometry x="110" y="320" width="80" height="40" as="geometry"/>
                </mxCell>
                <mxCell id="23" value="no" style="edgeStyle=orthogonalEdgeStyle;html=1;align=left;verticalAlign=bottom;endArrow=open;endSize=8;strokeColor=#ff0000;fontColor=#000000;entryX=0;entryY=0.5;entryDx=0;entryDy=0;" edge="1" source="22" parent="7" target="25">
                    <mxGeometry x="-1" relative="1" as="geometry">
                        <mxPoint x="270" y="340" as="targetPoint"/>
                    </mxGeometry>
                </mxCell>
                <mxCell id="24" value="yes" style="edgeStyle=orthogonalEdgeStyle;html=1;align=left;verticalAlign=top;endArrow=open;endSize=8;strokeColor=#ff0000;fontColor=#000000;entryX=0.5;entryY=0;entryDx=0;entryDy=0;" edge="1" source="22" parent="7" target="29">
                    <mxGeometry x="-1" relative="1" as="geometry">
                        <mxPoint x="150" y="420" as="targetPoint"/>
                    </mxGeometry>
                </mxCell>
                <mxCell id="25" value="放入等待队列" style="rounded=1;whiteSpace=wrap;html=1;arcSize=40;fontColor=#000000;fillColor=#ffffc0;strokeColor=#ff0000;" vertex="1" parent="7">
                    <mxGeometry x="260" y="320" width="120" height="40" as="geometry"/>
                </mxCell>
                <mxCell id="26" value="" style="edgeStyle=orthogonalEdgeStyle;html=1;verticalAlign=bottom;endArrow=open;endSize=8;strokeColor=#ff0000;fontColor=#000000;entryX=0.5;entryY=0;entryDx=0;entryDy=0;" edge="1" source="25" parent="7" target="29">
                    <mxGeometry relative="1" as="geometry">
                        <mxPoint x="320" y="400" as="targetPoint"/>
                        <Array as="points">
                            <mxPoint x="320" y="390"/>
                            <mxPoint x="150" y="390"/>
                        </Array>
                    </mxGeometry>
                </mxCell>
                <mxCell id="29" value="确认是否首次打电话" style="rhombus;whiteSpace=wrap;html=1;fillColor=#ffffc0;strokeColor=#ff0000;fontColor=#000000;" vertex="1" parent="7">
                    <mxGeometry x="80" y="410" width="140" height="40" as="geometry"/>
                </mxCell>
                <mxCell id="30" value="no" style="edgeStyle=orthogonalEdgeStyle;html=1;align=left;verticalAlign=bottom;endArrow=open;endSize=8;strokeColor=#ff0000;fontColor=#000000;entryX=0.5;entryY=0;entryDx=0;entryDy=0;" edge="1" source="29" parent="7" target="36">
                    <mxGeometry relative="1" as="geometry">
                        <mxPoint x="290" y="581.103515625" as="targetPoint"/>
                    </mxGeometry>
                </mxCell>
                <mxCell id="31" value="yes" style="edgeStyle=orthogonalEdgeStyle;html=1;align=left;verticalAlign=top;endArrow=open;endSize=8;strokeColor=#ff0000;fontColor=#000000;entryX=0.5;entryY=0;entryDx=0;entryDy=0;" edge="1" source="29" parent="7" target="32">
                    <mxGeometry x="-1" relative="1" as="geometry">
                        <mxPoint x="150" y="510" as="targetPoint"/>
                    </mxGeometry>
                </mxCell>
                <mxCell id="32" value="创建新的电话报告" style="rounded=1;whiteSpace=wrap;html=1;arcSize=40;fontColor=#000000;fillColor=#ffffc0;strokeColor=#ff0000;" vertex="1" parent="7">
                    <mxGeometry x="90" y="510" width="120" height="40" as="geometry"/>
                </mxCell>
                <mxCell id="33" value="" style="edgeStyle=orthogonalEdgeStyle;html=1;verticalAlign=bottom;endArrow=open;endSize=8;strokeColor=#ff0000;fontColor=#000000;entryX=0.5;entryY=0;entryDx=0;entryDy=0;" edge="1" source="32" parent="7" target="34">
                    <mxGeometry relative="1" as="geometry">
                        <mxPoint x="150" y="600" as="targetPoint"/>
                    </mxGeometry>
                </mxCell>
                <mxCell id="34" value="记录所有有关信息" style="rounded=1;whiteSpace=wrap;html=1;arcSize=40;fontColor=#000000;fillColor=#ffffc0;strokeColor=#ff0000;" vertex="1" parent="7">
                    <mxGeometry x="90" y="590" width="120" height="40" as="geometry"/>
                </mxCell>
                <mxCell id="35" value="" style="edgeStyle=orthogonalEdgeStyle;html=1;verticalAlign=bottom;endArrow=open;endSize=8;strokeColor=#ff0000;fontColor=#000000;entryX=0.5;entryY=0;entryDx=0;entryDy=0;" edge="1" source="34" parent="7" target="44">
                    <mxGeometry relative="1" as="geometry">
                        <mxPoint x="150" y="680" as="targetPoint"/>
                    </mxGeometry>
                </mxCell>
                <mxCell id="36" value="要求顾客提供报告编号或电话号码等" style="rounded=1;whiteSpace=wrap;html=1;arcSize=40;fontColor=#000000;fillColor=#ffffc0;strokeColor=#ff0000;" vertex="1" parent="7">
                    <mxGeometry x="230" y="540" width="120" height="40" as="geometry"/>
                </mxCell>
                <mxCell id="37" value="" style="edgeStyle=orthogonalEdgeStyle;html=1;verticalAlign=bottom;endArrow=open;endSize=8;strokeColor=#ff0000;fontColor=#000000;" edge="1" source="36" parent="7" target="40">
                    <mxGeometry relative="1" as="geometry">
                        <mxPoint x="290" y="648" as="targetPoint"/>
                    </mxGeometry>
                </mxCell>
                <mxCell id="40" value="报告是否开放" style="rhombus;whiteSpace=wrap;html=1;fillColor=#ffffc0;strokeColor=#ff0000;fontColor=#000000;" vertex="1" parent="7">
                    <mxGeometry x="245" y="630" width="90" height="40" as="geometry"/>
                </mxCell>
                <mxCell id="41" value="no" style="edgeStyle=orthogonalEdgeStyle;html=1;align=left;verticalAlign=bottom;endArrow=open;endSize=8;strokeColor=#ff0000;fontColor=#000000;entryX=0.5;entryY=0;entryDx=0;entryDy=0;" edge="1" source="40" parent="7" target="46">
                    <mxGeometry x="-1" relative="1" as="geometry">
                        <mxPoint x="410" y="700" as="targetPoint"/>
                    </mxGeometry>
                </mxCell>
                <mxCell id="42" value="yes" style="edgeStyle=orthogonalEdgeStyle;html=1;align=left;verticalAlign=top;endArrow=open;endSize=8;strokeColor=#ff0000;fontColor=#000000;entryX=0.5;entryY=0;entryDx=0;entryDy=0;" edge="1" source="40" parent="7" target="44">
                    <mxGeometry x="-1" relative="1" as="geometry">
                        <mxPoint x="290" y="720" as="targetPoint"/>
                        <Array as="points">
                            <mxPoint x="290" y="710"/>
                            <mxPoint x="150" y="710"/>
                        </Array>
                    </mxGeometry>
                </mxCell>
                <mxCell id="44" value="尝试解决问题" style="rounded=1;whiteSpace=wrap;html=1;arcSize=40;fontColor=#000000;fillColor=#ffffc0;strokeColor=#ff0000;" vertex="1" parent="7">
                    <mxGeometry x="90" y="740" width="120" height="40" as="geometry"/>
                </mxCell>
                <mxCell id="45" value="" style="edgeStyle=orthogonalEdgeStyle;html=1;verticalAlign=bottom;endArrow=open;endSize=8;strokeColor=#ff0000;fontColor=#000000;entryX=0.5;entryY=0;entryDx=0;entryDy=0;" edge="1" source="44" parent="7" target="50">
                    <mxGeometry relative="1" as="geometry">
                        <mxPoint x="150" y="830" as="targetPoint"/>
                        <Array as="points"/>
                    </mxGeometry>
                </mxCell>
                <mxCell id="46" value="告知顾客问题已处理" style="rounded=1;whiteSpace=wrap;html=1;arcSize=40;fontColor=#000000;fillColor=#ffffc0;strokeColor=#ff0000;" vertex="1" parent="7">
                    <mxGeometry x="335" y="1020" width="120" height="40" as="geometry"/>
                </mxCell>
                <mxCell id="47" value="" style="edgeStyle=orthogonalEdgeStyle;html=1;verticalAlign=bottom;endArrow=open;endSize=8;strokeColor=#ff0000;fontColor=#000000;entryX=0.498;entryY=-0.084;entryDx=0;entryDy=0;entryPerimeter=0;" edge="1" source="46" parent="7" target="57">
                    <mxGeometry relative="1" as="geometry">
                        <mxPoint x="410" y="1120" as="targetPoint"/>
                    </mxGeometry>
                </mxCell>
                <mxCell id="50" value="成功？" style="rhombus;whiteSpace=wrap;html=1;fillColor=#ffffc0;strokeColor=#ff0000;fontColor=#000000;" vertex="1" parent="7">
                    <mxGeometry x="110" y="950" width="80" height="40" as="geometry"/>
                </mxCell>
                <mxCell id="51" value="no" style="edgeStyle=orthogonalEdgeStyle;html=1;align=left;verticalAlign=bottom;endArrow=open;endSize=8;strokeColor=#ff0000;fontColor=#000000;entryX=0.5;entryY=1;entryDx=0;entryDy=0;exitX=0;exitY=0.5;exitDx=0;exitDy=0;" edge="1" source="50" parent="7" target="53">
                    <mxGeometry relative="1" as="geometry">
                        <mxPoint x="300" y="830" as="targetPoint"/>
                    </mxGeometry>
                </mxCell>
                <mxCell id="52" value="yes" style="edgeStyle=orthogonalEdgeStyle;html=1;align=left;verticalAlign=top;endArrow=open;endSize=8;strokeColor=#ff0000;fontColor=#000000;entryX=0.5;entryY=0;entryDx=0;entryDy=0;" edge="1" source="50" parent="7" target="46">
                    <mxGeometry x="-1" relative="1" as="geometry">
                        <mxPoint x="150" y="950" as="targetPoint"/>
                    </mxGeometry>
                </mxCell>
                <mxCell id="53" value="为问题提供新细节" style="rounded=1;whiteSpace=wrap;html=1;arcSize=40;fontColor=#000000;fillColor=#ffffc0;strokeColor=#ff0000;" vertex="1" parent="7">
                    <mxGeometry y="850" width="120" height="40" as="geometry"/>
                </mxCell>
                <mxCell id="54" value="" style="edgeStyle=orthogonalEdgeStyle;html=1;verticalAlign=bottom;endArrow=open;endSize=8;strokeColor=#ff0000;fontColor=#000000;entryX=0;entryY=0.5;entryDx=0;entryDy=0;" edge="1" source="53" parent="7" target="44">
                    <mxGeometry relative="1" as="geometry">
                        <mxPoint x="310" y="870" as="targetPoint"/>
                    </mxGeometry>
                </mxCell>
                <mxCell id="62" style="edgeStyle=orthogonalEdgeStyle;html=1;exitX=0.5;exitY=1;exitDx=0;exitDy=0;entryX=0.5;entryY=0;entryDx=0;entryDy=0;fontColor=#000000;strokeColor=#FF0000;" edge="1" parent="7" source="55" target="60">
                    <mxGeometry relative="1" as="geometry"/>
                </mxCell>
                <mxCell id="55" value="关闭报告&amp;nbsp;" style="rounded=1;whiteSpace=wrap;html=1;arcSize=40;fontColor=#000000;fillColor=#ffffc0;strokeColor=#ff0000;" vertex="1" parent="7">
                    <mxGeometry x="140" y="1129" width="120" height="40" as="geometry"/>
                </mxCell>
                <mxCell id="57" value="报告是否关闭" style="rhombus;whiteSpace=wrap;html=1;fillColor=#ffffc0;strokeColor=#ff0000;fontColor=#000000;" vertex="1" parent="7">
                    <mxGeometry x="330" y="1129" width="130" height="40" as="geometry"/>
                </mxCell>
                <mxCell id="58" value="no" style="edgeStyle=orthogonalEdgeStyle;html=1;align=left;verticalAlign=bottom;endArrow=open;endSize=8;strokeColor=#ff0000;fontColor=#000000;entryX=1;entryY=0.5;entryDx=0;entryDy=0;" edge="1" source="57" parent="7" target="55">
                    <mxGeometry x="-1" relative="1" as="geometry">
                        <mxPoint x="260" y="1150" as="targetPoint"/>
                    </mxGeometry>
                </mxCell>
                <mxCell id="59" value="yes" style="edgeStyle=orthogonalEdgeStyle;html=1;align=left;verticalAlign=top;endArrow=open;endSize=8;strokeColor=#ff0000;fontColor=#000000;entryX=0.5;entryY=0;entryDx=0;entryDy=0;exitX=0.5;exitY=1;exitDx=0;exitDy=0;" edge="1" source="57" parent="7" target="60">
                    <mxGeometry relative="1" as="geometry">
                        <mxPoint x="260" y="1290" as="targetPoint"/>
                        <mxPoint x="390" y="1190" as="sourcePoint"/>
                    </mxGeometry>
                </mxCell>
                <mxCell id="60" value="" style="ellipse;html=1;shape=endState;fillColor=#000000;strokeColor=#ff0000;fontColor=#000000;" vertex="1" parent="7">
                    <mxGeometry x="185" y="1250" width="30" height="30" as="geometry"/>
                </mxCell>
                <mxCell id="6" value="用户" style="swimlane;" vertex="1" parent="1">
                    <mxGeometry x="510" width="500" height="1600" as="geometry"/>
                </mxCell>
                <mxCell id="8" value="" style="ellipse;html=1;shape=startState;fillColor=#000000;strokeColor=#ff0000;" vertex="1" parent="6">
                    <mxGeometry x="230" y="30" width="30" height="30" as="geometry"/>
                </mxCell>
                <mxCell id="9" value="" style="edgeStyle=orthogonalEdgeStyle;html=1;verticalAlign=bottom;endArrow=open;endSize=8;strokeColor=#ff0000;entryX=0.5;entryY=0;entryDx=0;entryDy=0;" edge="1" source="8" parent="6" target="10">
                    <mxGeometry relative="1" as="geometry">
                        <mxPoint x="245" y="120" as="targetPoint"/>
                    </mxGeometry>
                </mxCell>
                <mxCell id="10" value="打进电话" style="rounded=1;whiteSpace=wrap;html=1;arcSize=40;fontColor=#000000;fillColor=#ffffc0;strokeColor=#ff0000;" vertex="1" parent="6">
                    <mxGeometry x="185" y="100" width="120" height="40" as="geometry"/>
                </mxCell>
                <mxCell id="11" value="" style="edgeStyle=orthogonalEdgeStyle;html=1;verticalAlign=bottom;endArrow=open;endSize=8;strokeColor=#ff0000;entryX=0.5;entryY=0;entryDx=0;entryDy=0;" edge="1" source="10" parent="1" target="12">
                    <mxGeometry relative="1" as="geometry">
                        <mxPoint x="320" y="190" as="targetPoint"/>
                    </mxGeometry>
                </mxCell>
                <mxCell id="16" value="yes" style="edgeStyle=orthogonalEdgeStyle;html=1;align=left;verticalAlign=top;endArrow=open;endSize=8;strokeColor=#ff0000;entryX=0;entryY=0.5;entryDx=0;entryDy=0;" edge="1" source="14" parent="1" target="20">
                    <mxGeometry relative="1" as="geometry">
                        <mxPoint x="1040" y="250" as="targetPoint"/>
                        <Array as="points"/>
                    </mxGeometry>
                </mxCell>
            </root>
        </mxGraphModel>
    </diagram>
</mxfile>